<svg width="140" height="32" viewBox="0 0 140 32" fill="none" xmlns="http://www.w3.org/2000/svg">
<path d="M49.4903 20.9518C49.0461 20.9518 48.5339 20.8839 47.9538 20.7481L46.1211 20.2483L46.6209 18.7488C47.6576 19.119 48.5215 19.3041 49.2127 19.3041C49.5829 19.3041 49.8915 19.2178 50.1383 19.045C50.3851 18.8722 50.5085 18.6377 50.5085 18.3415C50.5085 18.0453 50.4283 17.8232 50.2679 17.6751C50.1074 17.527 49.8112 17.3974 49.3793 17.2863L48.3796 17.0271C46.9973 16.6692 46.3062 15.8547 46.3062 14.5835C46.3062 13.8183 46.5962 13.1889 47.1763 12.6952C47.7687 12.2016 48.54 11.9547 49.4903 11.9547C49.8729 11.9547 50.3234 12.0226 50.8418 12.1584L52.6745 12.6582L52.1746 14.1577C51.175 13.7875 50.416 13.6023 49.8976 13.6023C49.5521 13.6023 49.262 13.6949 49.0275 13.88C48.793 14.0528 48.6758 14.2811 48.6758 14.565C48.6758 14.8612 48.756 15.0833 48.9165 15.2314C49.0769 15.3795 49.3731 15.5091 49.8051 15.6202L50.7862 15.8794C51.5267 16.0768 52.0574 16.3792 52.3783 16.7865C52.6992 17.1814 52.8596 17.6936 52.8596 18.323C52.8596 19.0758 52.5757 19.7053 52.008 20.2113C51.4403 20.7049 50.6011 20.9518 49.4903 20.9518Z" fill="#5A5CA4"/>
<path d="M57.4079 20.9518C56.4822 20.9518 55.8281 20.7234 55.4456 20.2668C55.0753 19.8102 54.8902 19.1129 54.8902 18.1749V13.7504H53.5203V12.1213H54.8902V9.95539L57.2413 9.49258V12.1213H59.2776V13.7504H57.2413V18.2119C57.2413 18.9401 57.5375 19.3041 58.1299 19.3041C58.4878 19.3041 58.8703 19.1931 59.2776 18.9709L59.6479 20.3594C58.9691 20.7543 58.2224 20.9518 57.4079 20.9518Z" fill="#5A5CA4"/>
<path d="M63.1722 20.9518C62.3329 20.9518 61.6665 20.6926 61.1728 20.1742C60.6792 19.6559 60.4323 19.0388 60.4323 18.323C60.4323 17.7923 60.6051 17.3665 60.9507 17.0456C61.3086 16.7124 61.864 16.4532 62.6168 16.2681L65.5973 15.5276V14.7686C65.5973 14.4107 65.4862 14.1269 65.2641 13.917C65.0543 13.7072 64.7581 13.6023 64.3755 13.6023C63.9435 13.6023 62.9685 13.9294 61.4505 14.5835L60.8026 13.084L62.913 12.3065C63.5548 12.072 64.0237 11.9547 64.3199 11.9547C65.443 11.9547 66.3254 12.2509 66.9672 12.8433C67.6213 13.4234 67.9484 14.1886 67.9484 15.1389V18.323C67.9484 18.5575 67.9854 18.9092 68.0594 19.3782C68.1458 19.8348 68.2569 20.2236 68.3927 20.5445L66.3748 20.9518C66.128 20.6802 65.8688 20.3038 65.5973 19.8225C64.7704 20.5753 63.962 20.9518 63.1722 20.9518ZM64.0052 19.3041C64.4865 19.3041 65.0172 19.0265 65.5973 18.4711V16.6013L63.746 17.1382C63.1537 17.311 62.8575 17.638 62.8575 18.1194C62.8575 18.4896 62.9624 18.7796 63.1722 18.9894C63.382 19.1992 63.6597 19.3041 64.0052 19.3041Z" fill="#5A5CA4"/>
<path d="M72.8382 20.9518C71.9126 20.9518 71.2585 20.7234 70.8759 20.2668C70.5057 19.8102 70.3205 19.1129 70.3205 18.1749V13.7504H68.9506V12.1213H70.3205V9.95539L72.6716 9.49258V12.1213H74.708V13.7504H72.6716V18.2119C72.6716 18.9401 72.9678 19.3041 73.5602 19.3041C73.9181 19.3041 74.3007 19.1931 74.708 18.9709L75.0782 20.3594C74.3994 20.7543 73.6528 20.9518 72.8382 20.9518Z" fill="#5A5CA4"/>
<path d="M83.5083 20.7851H81.2683V17.9342H76.2144L75.7146 16.4903L80.9906 8.93721H83.5083V16.1941H84.6931V17.9342H83.5083V20.7851ZM81.2683 16.1941V11.3808L77.9916 16.1941H81.2683Z" fill="#D653D2"/>
<path d="M98.9845 20.7851H96.6335V15.7313C96.6335 14.9908 96.5224 14.4539 96.3002 14.1207C96.0904 13.7751 95.751 13.6023 95.282 13.6023C94.8131 13.6023 94.3071 13.88 93.764 14.4354V20.7851H91.413V15.7313C91.413 14.9908 91.3081 14.4539 91.0982 14.1207C90.8884 13.7751 90.5429 13.6023 90.0616 13.6023C89.6049 13.6023 89.0989 13.88 88.5435 14.4354V20.7851H86.1925V14.5835C86.1925 14.349 86.1493 14.0034 86.0629 13.5468C85.9888 13.0778 85.8839 12.6829 85.7482 12.362L87.7475 11.9547C88.0067 12.2139 88.272 12.5903 88.5435 13.084C89.3211 12.3311 90.1294 11.9547 90.9687 11.9547C92.2152 11.9547 93.0606 12.3929 93.5049 13.2691C93.7764 12.9112 94.1651 12.6027 94.6711 12.3435C95.1771 12.0843 95.6832 11.9547 96.1892 11.9547C97.1271 11.9547 97.8244 12.2262 98.2811 12.7693C98.75 13.3123 98.9845 14.1577 98.9845 15.3055V20.7851Z" fill="#5A5CA4"/>
<path d="M103.253 20.9518C102.414 20.9518 101.747 20.6926 101.254 20.1742C100.76 19.6559 100.513 19.0388 100.513 18.323C100.513 17.7923 100.686 17.3665 101.031 17.0456C101.389 16.7124 101.945 16.4532 102.698 16.2681L105.678 15.5276V14.7686C105.678 14.4107 105.567 14.1269 105.345 13.917C105.135 13.7072 104.839 13.6023 104.456 13.6023C104.024 13.6023 103.049 13.9294 101.531 14.5835L100.883 13.084L102.994 12.3065C103.636 12.072 104.104 11.9547 104.401 11.9547C105.524 11.9547 106.406 12.2509 107.048 12.8433C107.702 13.4234 108.029 14.1886 108.029 15.1389V18.323C108.029 18.5575 108.066 18.9092 108.14 19.3782C108.227 19.8348 108.338 20.2236 108.473 20.5445L106.456 20.9518C106.209 20.6802 105.95 20.3038 105.678 19.8225C104.851 20.5753 104.043 20.9518 103.253 20.9518ZM104.086 19.3041C104.567 19.3041 105.098 19.0265 105.678 18.4711V16.6013L103.827 17.1382C103.234 17.311 102.938 17.638 102.938 18.1194C102.938 18.4896 103.043 18.7796 103.253 18.9894C103.463 19.1992 103.74 19.3041 104.086 19.3041Z" fill="#5A5CA4"/>
<path d="M112.489 20.7851H110.138V14.5835C110.138 14.349 110.095 14.0034 110.008 13.5468C109.934 13.0778 109.829 12.6829 109.694 12.362L111.693 11.9547C112.075 12.3373 112.341 12.8557 112.489 13.5098C112.736 13.0161 113.063 12.6335 113.47 12.362C113.89 12.0905 114.34 11.9547 114.821 11.9547C115.093 11.9547 115.34 11.9979 115.562 12.0843L115.155 14.1022H114.544C113.964 14.1022 113.507 14.2441 113.174 14.528C112.853 14.7995 112.625 15.2561 112.489 15.8979V20.7851Z" fill="#5A5CA4"/>
<path d="M124.714 20.7851H121.826L118.957 16.3051V20.7851H116.606V8.41886L118.957 7.95605V15.6572L121.882 12.1213H124.529L121.049 15.9904L124.714 20.7851Z" fill="#5A5CA4"/>
<path d="M128.928 20.9518C127.533 20.9518 126.478 20.5383 125.762 19.7114C125.059 18.8722 124.707 17.7738 124.707 16.4162C124.707 15.0586 125.071 13.9788 125.799 13.1765C126.528 12.362 127.54 11.9547 128.835 11.9547C131.341 11.9547 132.593 13.2568 132.593 15.8608C132.593 16.1324 132.563 16.3607 132.501 16.5458H127.132C127.132 17.4714 127.299 18.1626 127.632 18.6192C127.978 19.0758 128.453 19.3041 129.058 19.3041C129.736 19.3041 130.625 19.0573 131.723 18.5637L132.371 20.0632L130.409 20.7851C130.076 20.8962 129.582 20.9518 128.928 20.9518ZM128.706 13.6023C128.212 13.6023 127.823 13.7751 127.54 14.1207C127.268 14.4662 127.132 14.8982 127.132 15.4165H130.15C130.15 14.2071 129.669 13.6023 128.706 13.6023Z" fill="#5A5CA4"/>
<path d="M137.203 20.9518C136.278 20.9518 135.624 20.7234 135.241 20.2668C134.871 19.8102 134.686 19.1129 134.686 18.1749V13.7504H133.316V12.1213H134.686V9.95539L137.037 9.49258V12.1213H139.073V13.7504H137.037V18.2119C137.037 18.9401 137.333 19.3041 137.925 19.3041C138.283 19.3041 138.666 19.1931 139.073 18.9709L139.443 20.3594C138.765 20.7543 138.018 20.9518 137.203 20.9518Z" fill="#5A5CA4"/>
<mask id="mask0_3602_2" style="mask-type:alpha" maskUnits="userSpaceOnUse" x="0" y="0" width="35" height="33">
<ellipse cx="17.5" cy="16.0001" rx="17.5" ry="16" fill="url(#paint0_linear_3602_2)"/>
</mask>
<g mask="url(#mask0_3602_2)">
<ellipse cx="17.5" cy="16.0001" rx="17.5" ry="16" fill="url(#paint1_linear_3602_2)"/>
<path d="M23.065 20.4408V2.65679C23.065 2.38479 23.0737 2.08879 23.0912 1.76879C23.1262 1.44879 23.1613 1.12079 23.1963 0.784792L7.13125 20.4408H23.065ZM37.9357 20.4408V21.6888C37.9357 21.8648 37.8745 22.0088 37.752 22.1208C37.647 22.2168 37.472 22.2648 37.227 22.2648H25.27V32.0088H23.065V22.2648H5.50375C5.24125 22.2648 5.04 22.2168 4.9 22.1208C4.76 22.0088 4.66375 21.8648 4.61125 21.6888L4.375 20.5608L23.0387 -1.99921H25.27V20.4408H37.9357Z" fill="white"/>
</g>
<defs>
<linearGradient id="paint0_linear_3602_2" x1="40.25" y1="-9.59988" x2="13.6834" y2="34.1965" gradientUnits="userSpaceOnUse">
<stop stop-color="#FF00AA"/>
<stop offset="1" stop-color="#8912DE"/>
</linearGradient>
<linearGradient id="paint1_linear_3602_2" x1="40.25" y1="-9.59988" x2="13.6834" y2="34.1965" gradientUnits="userSpaceOnUse">
<stop stop-color="#FF00AA"/>
<stop offset="1" stop-color="#8912DE"/>
</linearGradient>
</defs>
</svg>
